<?xml version="1.0" encoding="UTF-8" standalone="no"?>
<!DOCTYPE svg PUBLIC "-//W3C//DTD SVG 1.1//EN" "http://www.w3.org/Graphics/SVG/1.1/DTD/svg11.dtd">
<svg width="100%" height="100%" viewBox="0 0 836 261" version="1.1" xmlns="http://www.w3.org/2000/svg" xmlns:xlink="http://www.w3.org/1999/xlink" xml:space="preserve" xmlns:serif="http://www.serif.com/" style="fill-rule:evenodd;clip-rule:evenodd;stroke-linejoin:round;stroke-miterlimit:2;">
    <g transform="matrix(1.33333,0,0,1.33333,-472,-404)">
        <path d="M935.143,393.29C940.867,392.744 948.411,392.821 951.138,399.003C952.151,401.331 952.163,403.973 951.173,406.31C950.295,408.351 948.247,410.598 946.105,411.017C934.806,413.225 938.805,403.748 932.854,400.636C923.236,400.748 912.878,408.711 905.296,414.095C919.236,416.237 931.229,424.567 925.156,440.756C919.638,455.466 901.798,456.241 889.818,449.68C888.582,449.003 886.511,448.105 885.175,448.647C884.446,450.58 884.548,450.971 884.776,453.045C888.859,461.069 926.488,455.093 929.832,471.425C932.812,485.978 921.354,491.777 909.696,494.729C899.877,495.946 882.579,495.589 877.438,485.296C875.065,480.545 876.757,474.402 882.224,472.73C887.22,471.201 890.118,472.982 894.431,475.248C891.597,479.084 887.539,486.362 892.886,490.862C900.28,497.086 920.08,488.966 917.087,479.068C913.852,468.368 893.223,472.556 884.833,466.676C876.248,460.659 879.141,453.986 883.796,446.083C879.055,439.84 875.697,432.898 879.65,425.305C884.114,416.733 895.958,417.077 900.857,413.541C913.014,404.767 919.591,396.768 935.143,393.29ZM899.101,416.647C888.532,424.301 891.344,452.005 906.18,451.673C916.451,443.473 914.645,416.689 899.101,416.647Z" style="fill:rgb(26,26,26);"/>
    </g>
    <g transform="matrix(1.33333,0,0,1.33333,-472,-404)">
        <path d="M673.821,307.037C676.988,307.018 686.598,306.525 689.056,308.138C698.27,314.182 713.059,386.827 723.936,382.723C729.492,376.289 730.346,348.116 724.973,341.655L724.521,341.122C724.61,340.738 740.797,331.779 742.71,330.503L742.711,342.559C743.248,341.746 743.794,340.938 744.349,340.137C749.822,332.272 760.024,325.659 769.168,332.177C769.218,333.197 763.486,343.222 762.544,345.042C742.602,328.824 740.522,358.438 743.289,371.119C744.703,377.599 744.95,378.924 748.765,384.644L693.109,384.609C695.047,382.442 695.856,381.056 697.391,378.574C698.11,370.924 694.78,351.432 684.566,352.267C681.074,354.985 689.883,369.936 680.799,372.399C656.346,379.027 659.093,335.888 691.957,353.102C687.981,341.017 683.501,329.103 678.529,317.393C677.297,320.14 674.752,326.276 674.001,329.227C669.393,347.333 650.541,371.119 671.987,384.524L647.561,384.526C649.772,382.135 653.001,378.494 654.391,374.718C661.757,354.706 670.374,334.096 676.92,313.906C677.69,311.53 675.23,308.74 673.821,307.037Z" style="fill:rgb(26,26,26);fill-rule:nonzero;"/>
    </g>
    <g transform="matrix(1.33333,0,0,1.33333,-472,-404)">
        <path d="M400.37,306.802C409.832,307.322 420.972,307.014 430.418,306.603C412.889,312.512 409.874,316.752 396.945,329.373C401.381,338.646 432.804,417.886 448.174,405.204C449.237,402.177 447.523,397.582 447.857,394.094C447.57,389.593 453.615,386.849 457.467,388.045C468.211,391.383 465.646,403.231 456.952,407C448.078,410.847 438.999,410.64 430.47,407.846C414.436,402.593 408.086,389.452 401.298,375.641C395.808,363.876 390.334,352.59 386.256,340.231C376.245,352.406 375.693,373.816 387.896,384.679C378.042,384.612 368.188,384.603 358.334,384.651C367.221,373.404 364.531,357.185 364.853,343.606C365.171,330.221 365.992,318.737 358.88,307.025C367.522,307.212 376.648,307.075 385.33,307.067C377.408,319.416 379.247,330.746 379.413,345.19C385.629,336.606 393.443,330.973 400.561,323.39C406.502,317.061 407.677,312.212 400.37,306.802Z" style="fill:rgb(26,26,26);fill-rule:nonzero;"/>
    </g>
    <g transform="matrix(1.33333,0,0,1.33333,-472,-404)">
        <path d="M508.709,330.261C512.783,330.057 518.579,328.908 520.649,332.958C520.448,336.431 516.783,341.76 514.87,345.052C492.629,325.417 490.455,369.627 501.028,384.64C495.026,384.657 463.731,385.289 460.521,383.784C456.777,382.03 455.2,378.275 453.819,374.647C452.44,377.037 450.767,379.811 448.599,381.578C443.083,386.792 429.517,386.797 425.326,380.022C415.606,363.744 428.213,355.832 442.441,351.095C448.198,349.178 453.4,346.614 454.03,340.13L454.093,339.435C452.914,336.21 451.076,332.464 447.235,332.63C437.95,333.03 442.126,345.907 435.677,351.211C432.188,351.974 427.028,348.908 426.384,345.792C423.241,330.598 448.065,328.11 457.362,333.206C473.191,341.882 465.977,361.48 469.526,375.487C470.594,379.626 473.309,381.194 476.713,382.859C482.19,372.264 481.751,359.054 480.313,347.453C480.165,346.262 477.8,341.877 477.109,340.606C478.483,339.458 491.092,333.202 495.341,330.432L495.373,342.364C499.706,335.783 501.307,333.185 508.709,330.261ZM453.291,346.558C444.742,353.646 429.894,364.173 440.656,376.372C459.266,385.47 454.527,348.435 453.291,346.558Z" style="fill:rgb(26,26,26);"/>
    </g>
    <g transform="matrix(1.33333,0,0,1.33333,-472,-404)">
        <path d="M728.611,415.485C731.689,418.04 724.954,455.206 735.132,469.936C741.936,460.179 744.008,435.205 736.116,425.576C743.259,422.708 748.414,419.577 754.957,415.579L755.011,425.778C760.229,418.987 767.816,412.899 776.558,415.84C799.56,423.578 782.626,450.583 795.782,470.178L782.578,470.076L769.984,470.156C771.318,467.969 772.625,465.172 773.541,462.644C775.789,455.704 778.261,422.529 767.839,421.663C750.016,420.181 753.974,452.084 756.667,462.591C757.288,465.012 758.888,467.83 760.227,470.189C743.55,469.864 726.019,470.133 709.272,470.164C715.448,459.834 718.687,435.037 710.171,425.441C717.447,422.428 722.148,419.93 728.611,415.485Z" style="fill:rgb(26,26,26);fill-rule:nonzero;"/>
    </g>
    <g transform="matrix(1.33333,0,0,1.33333,-472,-404)">
        <path d="M842.486,416.306C875.533,412.61 869.982,437.336 872.04,459.753C872.353,463.166 874.603,465.469 877.44,467.242L877.872,467.508L877.686,468.366C873.869,473.192 868.568,471.224 863.781,468.96C859.109,466.751 857.912,464.348 856.309,459.57C856.09,459.952 855.869,460.331 855.644,460.709C849.402,471.178 840.225,473.722 829.827,467.225C827.066,464.912 826.635,464 825.119,460.922C817.534,445.52 839.289,438.579 849.53,433.799C856.061,431.749 860.571,421.997 852.566,418.529C840.113,413.134 845.328,432.731 838.87,435.438C835.674,436.777 827.975,432.861 827.889,429.938C827.657,422.117 836.03,417.969 842.486,416.306ZM856.185,431.213C847.077,438.53 832.632,448.195 842.596,461.217C847.499,464.092 851.326,464.885 854.538,459.916C857.349,455.567 857.196,435.232 856.185,431.213Z" style="fill:rgb(26,26,26);"/>
    </g>
    <g transform="matrix(1.33333,0,0,1.33333,-472,-404)">
        <path d="M641.937,390.742C650.59,390.176 663.494,390.502 672.469,390.453C669.022,395.301 667.868,400.072 669.689,405.817C671.502,411.532 685.283,454.313 688.376,455.236C690.426,452.94 697.171,432.307 698.605,428.125C703.274,414.506 708.396,402.589 698.019,390.497L717.225,390.472C708.28,400.721 705.031,413.912 700.829,426.696C698.497,433.727 689.264,466.64 684.807,469.708C683.413,470.668 681.715,470.972 680.066,470.615C677.273,470.011 675.436,467.677 674.099,465.326C671.627,460.981 670.289,455.475 668.712,450.735C664.331,437.565 656.861,409.854 649.979,399.349C648.276,396.75 645.27,393.116 641.945,392.692C639.824,392.422 637.118,393.458 635.516,394.759L635.404,395.983C638.063,398.78 652.056,398.119 645.525,409.256C639.576,419.401 619.566,409.227 628.586,397.942C633.026,392.386 635.031,391.787 641.937,390.742Z" style="fill:rgb(26,26,26);fill-rule:nonzero;"/>
    </g>
    <g transform="matrix(1.33333,0,0,1.33333,-472,-404)">
        <path d="M831.854,331.047C855.519,330.483 857.376,346.809 856.879,366.416C856.633,376.102 856.867,375.564 862.816,382.737C861.141,386.061 851.573,385.906 848.457,383.568C844.245,380.406 843.743,379.409 841.838,374.555C835.353,386.469 823.442,389.721 813.272,379.923C799.065,357.149 830.375,354.337 841.302,344.331C846.07,339.965 838.337,331.622 833.21,332.413C826.484,336.249 829.333,359.081 817.067,348.715C805.883,339.263 824.394,331.864 831.854,331.047ZM841.696,346.403C832.778,353.683 818.244,363.805 828.778,376.532C833.122,378.783 838.177,379.82 840.417,374.315C842.73,368.631 842.851,352.27 841.696,346.403Z" style="fill:rgb(26,26,26);"/>
    </g>
    <g transform="matrix(1.33333,0,0,1.33333,-472,-404)">
        <path d="M541.271,330.424C567.505,329.935 575.948,364.393 531.276,365.094C534.87,371.027 538.719,374.334 545.817,375.524C551.748,376.518 557.412,374.202 560.874,369.303C561.937,367.798 562.791,365.252 564.183,364.196L564.285,366.82C555.897,396.978 519.122,388.955 515.823,362.759C514.777,354.61 517.059,346.384 522.153,339.939C527.515,333.285 533.181,331.329 541.271,330.424ZM537.743,332.565C528.34,340.497 528.873,352.562 530.693,363.795C533.227,363.422 537.331,362.943 539.68,362.295C553.649,355.262 550.791,332.04 537.743,332.565Z" style="fill:rgb(26,26,26);"/>
    </g>
    <g transform="matrix(1.33333,0,0,1.33333,-472,-404)">
        <path d="M954.803,415.735C968.179,415.435 984.431,426.836 973.615,441.017C967.705,448.767 954.214,449.756 944.973,450.346C954.058,464.075 971.038,465.316 978.075,448.791L978.316,450.192C976.219,460.816 971.365,468.931 959.977,470.485C923.427,475.47 917.029,420.307 954.803,415.735ZM952.547,417.292C947.327,420.906 944.505,426.359 943.806,432.574C942.655,442.793 939.818,450.876 953.235,447.616C967.306,440.913 965.144,418.911 952.547,417.292Z" style="fill:rgb(26,26,26);"/>
    </g>
    <g transform="matrix(1.33333,0,0,1.33333,-472,-404)">
        <path d="M597.94,330.276C633.1,327.694 611.708,364.335 625.831,384.56L600.615,384.55C606.648,373.519 605.611,365.538 605.762,353.554C605.937,339.667 597.898,327.462 586.454,343.1C585.583,345.2 585.367,346.786 585.294,349.059C584.871,362.154 584.106,372.633 590.283,384.579L565.49,384.589C572.255,374.553 574.457,350.108 566.075,340.557C573.631,337.593 578.422,334.564 585.358,330.344L585.373,340.268C589.668,334.752 591.59,332.879 597.94,330.276Z" style="fill:rgb(26,26,26);fill-rule:nonzero;"/>
    </g>
    <g transform="matrix(1.33333,0,0,1.33333,-472,-404)">
        <path d="M892.946,330.507C901.204,330.76 909.586,330.583 917.856,330.495C898.593,346.166 895.993,374.576 885.471,396.537C881.037,405.79 865.615,416.052 858.412,401.705C856.64,398.175 860.075,392.329 864.849,391.616C873.414,390.338 870.696,396.768 875.128,399.95C881.138,400.235 886.076,391.044 887.442,385.944C886.234,384.266 885.102,384.503 882.604,383.876C869.596,375.884 871.14,358.324 863.598,345.318C859.048,337.47 858.271,336.643 851.718,330.499C862.242,330.872 873.667,330.65 884.265,330.623C878.391,336.032 878.049,342.738 879.978,350.236C881.266,355.245 886.447,372.097 890.4,374.521C894.68,367.554 900.747,351.181 900.063,342.915C899.524,336.408 897.584,334.451 892.946,330.507Z" style="fill:rgb(26,26,26);fill-rule:nonzero;"/>
    </g>
    <g transform="matrix(1.33333,0,0,1.33333,-472,-404)">
        <path d="M784.873,331.651C791.826,331.081 796.892,331.218 802.842,335.05C807.921,337.634 810.162,344.662 806.199,348.515C795.334,359.078 789.64,347.372 791.293,336.882C791.535,335.348 789.926,334.093 788.927,333.335C781.103,331.918 774.384,338.877 772.478,345.962C767.857,363.137 782.168,383.847 800.45,372.138C805.164,367.576 806.837,362.407 808.469,356.34C808.183,363.253 808.091,368.86 804.463,375.1C801.6,380.11 796.825,383.741 791.233,385.16C784.55,386.892 777.082,385.646 771.2,382.078C765.415,378.642 761.26,373.018 759.675,366.478C755.281,348.071 767.978,335.629 784.873,331.651Z" style="fill:rgb(26,26,26);fill-rule:nonzero;"/>
    </g>
    <g transform="matrix(1.33333,0,0,1.33333,-472,-404)">
        <path d="M813.966,403.487C814.639,406.79 814.311,416.114 814.267,419.945C817.593,419.884 821.782,419.499 824.78,420.694L824.783,421.438C821.785,422.648 817.581,422.276 814.249,422.226C814.111,431.074 812.486,455.788 817.034,462.709C819.139,465.913 823.298,464.76 825.49,465.066C823.996,467.72 818.475,469.816 815.672,470.955C793.016,474.08 798.915,437.755 798.958,422.569C796.483,422.466 794.075,422.585 791.832,421.652L792.215,420.736C795.397,418.512 797.737,418.94 801.098,417.802C807.532,415.622 811.068,408.982 813.966,403.487Z" style="fill:rgb(26,26,26);fill-rule:nonzero;"/>
    </g>
    <g transform="matrix(1.33333,0,0,1.33333,-472,-404)">
        <path d="M719.838,396.838C722.769,395.961 725.945,396.73 728.151,398.851C730.357,400.971 731.251,404.115 730.491,407.079C729.731,410.044 727.435,412.369 724.481,413.167C719.999,414.376 715.377,411.76 714.107,407.293C712.837,402.827 715.391,398.169 719.838,396.838Z" style="fill:rgb(26,26,26);fill-rule:nonzero;"/>
    </g>
</svg>
